<svg width="500" height="500" viewBox="0 0 500 500" fill="none" xmlns="http://www.w3.org/2000/svg">
<path d="M249 258H0V309H249V258Z" fill="#CEBD58"/>
<path d="M200 217H23V258H200V217Z" fill="#CEBD58"/>
<path d="M174 176H48V217H174V176Z" fill="#CEBD58"/>
<path d="M149 135H73V176H149V135Z" fill="#CEBD58"/>
<path d="M499 87H225V36H499V87Z" fill="#CEBD58"/>
<path d="M450 128H272V87H450V128Z" fill="#CEBD58"/>
<path d="M424 169H297V128H424V169Z" fill="#CEBD58"/>
<path d="M399 210H323V169H399V210Z" fill="#CEBD58"/>
<path d="M123.972 94.24H98.6719V309H123.972V94.24Z" fill="#CEBD58"/>
<path d="M149.273 135.19H123.973V309H149.273V135.19Z" fill="#CEBD58"/>
<path d="M98.6715 135.19H73.3711V309H98.6715V135.19Z" fill="#CEBD58"/>
<path d="M73.3707 176.14H48.0703V309H73.3707V176.14Z" fill="#CEBD58"/>
<path d="M48.0699 217.09H22.7695V309H48.0699V217.09Z" fill="#CEBD58"/>
<path d="M200 217H174V309H200V217Z" fill="#CEBD58"/>
<path d="M225.173 258.04H199.873V309H225.173V258.04Z" fill="#CEBD58"/>
<path d="M25.3004 258.04H0V309H25.3004V258.04Z" fill="#CEBD58"/>
<path d="M249.81 36H224.506V309H249.81V36Z" fill="#CEBD58"/>
<path d="M174.3 176.14H149V309H174.3V176.14Z" fill="#CEBD58"/>
<path d="M373.563 250.76H348.143V36H373.563V250.76Z" fill="#CEBD58"/>
<path d="M398.983 209.81H373.562V36.0001H398.983V209.81Z" fill="#CEBD58"/>
<path d="M348.142 209.81H322.721V36.0001H348.142V209.81Z" fill="#CEBD58"/>
<path d="M322.722 168.86H297.301V36H322.722V168.86Z" fill="#CEBD58"/>
<path d="M297.3 127.91H271.879V36H297.3V127.91Z" fill="#CEBD58"/>
<path d="M449.825 127.91H424.404V36H449.825V127.91Z" fill="#CEBD58"/>
<path d="M475.245 86.96H449.824V36H475.245V86.96Z" fill="#CEBD58"/>
<path d="M274.421 86.96H249V36H274.421V86.96Z" fill="#CEBD58"/>
<path d="M499.999 309H474.574V36H499.999V309Z" fill="#CEBD58"/>
<path d="M424.403 168.86H398.982V36H424.403V168.86Z" fill="#CEBD58"/>
<path d="M25 374H0V434H25V374Z" fill="#CEBD58"/>
<path d="M125 374H100V434H125V374Z" fill="#CEBD58"/>
<path d="M225 374H200V434H225V374Z" fill="#CEBD58"/>
<path d="M325 374H300V434H325V374Z" fill="#CEBD58"/>
<path d="M425 374H400V434H425V374Z" fill="#CEBD58"/>
<path d="M75 374H50V434H75V374Z" fill="#CEBD58"/>
<path d="M175 374H150V434H175V374Z" fill="#CEBD58"/>
<path d="M275 374H250V434H275V374Z" fill="#CEBD58"/>
<path d="M375 374H350V434H375V374Z" fill="#CEBD58"/>
<path d="M475 374H450V434H475V374Z" fill="#CEBD58"/>
<path d="M100 404H75V464H100V404Z" fill="#CEBD58"/>
<path d="M200 404H175V464H200V404Z" fill="#CEBD58"/>
<path d="M300 404H275V464H300V404Z" fill="#CEBD58"/>
<path d="M400 404H375V464H400V404Z" fill="#CEBD58"/>
<path d="M500 404H475V464H500V404Z" fill="#CEBD58"/>
<path d="M50 344H25V404H50V344Z" fill="#CEBD58"/>
<path d="M150 344H125V404H150V344Z" fill="#CEBD58"/>
<path d="M250 344H225V404H250V344Z" fill="#CEBD58"/>
<path d="M350 344H325V404H350V344Z" fill="#CEBD58"/>
<path d="M450 344H425V404H450V344Z" fill="#CEBD58"/>
</svg>
